<svg xmlns="http://www.w3.org/2000/svg" viewBox="0 0 390 490"><defs><style>.cls-1{font-size:150.66px;stroke:#fff;stroke-miterlimit:10;font-family:Gotham-Ultra, Gotham;}.cls-1,.cls-5,.cls-6{fill:none;}.cls-2{letter-spacing:-0.01em;}.cls-3{fill:#0a337c;}.cls-4{fill:#08254f;}.cls-5,.cls-6{stroke:#000;stroke-linecap:round;stroke-linejoin:round;}.cls-5{stroke-width:5px;}.cls-6{stroke-width:2px;}.cls-7{fill:#fff;fill-rule:evenodd;}</style></defs><title>1966</title><g id="camisas"><text class="cls-1" transform="translate(-9.4 -49.39)">19<tspan class="cls-2" x="163.31" y="0">6</tspan><tspan x="261.54" y="0">6</tspan></text></g><g id="arquivado"><path class="cls-3" d="M74.08,479l-1-284h-62s-3-13-2-44,0-62,13-81,31-24,63-36,61-23,61-23h98s27,10,55,21,53,18,61,28,22,20,21,72-2,63-2,63h-62s-1,77-1,164V479Z"/><path class="cls-4" d="M66.23,139s-2,56-18.5,56h25.5S74.23,158,66.23,139Z"/><path class="cls-4" d="M323.77,139s2,56,18.5,56h-25.5S315.77,158,323.77,139Z"/><path class="cls-4" d="M194.93,77s-23-13-41-30-18-24-13-30l5-6s-1,11,12,21c19.69,15.14,54.45,15.14,74.14,0,13-10,12-21,12-21l5,6c5,6,5,13-13,30s-41,30-41,30Z"/><path class="cls-5" d="M245.18,12l1.55,2.47c5.3,8.44,4.09,18.79-3.14,26.12-9,9.09-24.21,22-48.61,36.41h0c-24.4-14.36-39.64-27.32-48.61-36.41-7.23-7.33-8.44-17.68-3.14-26.12L144.82,12"/><path class="cls-6" d="M262.54,17.55c4.57,9.45,2.72,19.38-5.12,27.32-10.6,10.75-33.6,31.07-62.44,48h0c-28.84-17-51.84-37.29-62.44-48-7.84-7.94-9.69-17.88-5.12-27.33"/><line class="cls-6" x1="140.89" y1="20.98" x2="249.11" y2="20.98"/><path class="cls-5" d="M65.89,138.5s8,11,8,93v247H316.11v-247c0-82,8-93,8-93"/><path class="cls-5" d="M73.23,194.5H10.89s-4-51,0-88,17-50,48-62,87-33,87-33h98.22s56,21,87,33,44,25,48,62,0,88,0,88H316.77"/><line class="cls-6" x1="74" y1="468" x2="316" y2="468"/><line class="cls-6" x1="379.11" y1="178.5" x2="316.77" y2="178.5"/><line class="cls-6" x1="73.23" y1="178.5" x2="10.89" y2="178.5"/><polygon class="cls-7" points="258.34 174.08 260.89 179.82 260.89 179.82 267.14 179.18 262.46 183.37 265 189.12 259.57 185.97 254.89 190.16 256.21 184.01 256.21 184.01 256.21 184.01 250.77 180.87 257.02 180.22 257.02 180.22 257.02 180.22 258.34 174.08"/><polygon class="cls-7" points="281.44 127.83 283.98 133.57 283.98 133.57 290.23 132.93 285.55 137.12 288.1 142.87 282.66 139.71 277.99 143.91 279.31 137.77 279.31 137.77 279.31 137.77 273.87 134.62 280.12 133.97 280.12 133.97 280.12 133.97 281.44 127.83"/><polygon class="cls-7" points="259.18 141.58 260.86 145.38 260.86 145.38 265 144.96 261.9 147.73 263.59 151.54 259.99 149.45 256.89 152.23 257.77 148.16 257.77 148.16 257.77 148.16 254.17 146.07 258.3 145.65 258.3 145.65 258.3 145.65 259.18 141.58"/><polygon class="cls-7" points="248.19 106.34 250.73 112.08 250.73 112.08 256.99 111.44 252.31 115.63 254.85 121.38 249.41 118.23 244.74 122.42 246.06 116.28 246.06 116.28 246.06 116.28 240.62 113.13 246.87 112.48 246.87 112.48 246.87 112.48 248.19 106.34"/><polygon class="cls-7" points="221.19 133.54 223.73 139.28 223.73 139.28 229.98 138.64 225.3 142.83 227.85 148.57 222.41 145.42 217.74 149.62 219.06 143.48 219.06 143.48 219.06 143.48 213.62 140.33 219.87 139.68 219.87 139.68 219.87 139.68 221.19 133.54"/></g></svg>