<svg id="camisas" xmlns="http://www.w3.org/2000/svg" viewBox="0 0 390 490"><defs><style>.cls-1{font-size:150.66px;font-family:Gotham-Ultra, Gotham;}.cls-1,.cls-14,.cls-7,.cls-8{fill:none;}.cls-1,.cls-14{stroke:#fff;stroke-miterlimit:10;}.cls-2{letter-spacing:-0.01em;}.cls-3{letter-spacing:0em;}.cls-4{fill:#017734;}.cls-5{opacity:0.25;}.cls-6{fill:#cc0e00;}.cls-7,.cls-8{stroke:#000;stroke-linejoin:round;}.cls-14,.cls-7,.cls-8{stroke-linecap:round;}.cls-7{stroke-width:5px;}.cls-14,.cls-8{stroke-width:2px;}.cls-9{fill:#009344;}.cls-10,.cls-12,.cls-13,.cls-9{fill-rule:evenodd;}.cls-10{fill:#de0e20;}.cls-11,.cls-12{fill:#fff;}.cls-13{fill:#efba25;}</style></defs><title>1921</title><text class="cls-1" transform="translate(26.07 -49.39)">1<tspan class="cls-2" x="63.58" y="0">9</tspan><tspan class="cls-3" x="161.8" y="0">21</tspan></text><path class="cls-4" d="M74,486.38v-271H11.62C10,176.86,13.15,86.87,36.86,68,49.62,57.76,75,42.38,123.58,27l1.58-.5.41-1.6A4.49,4.49,0,0,1,126,23.7c1.48-1.63,9.09-7.88,14.64-12.45,2-1.62,3.67-3,4.83-4,3.94-3.3,6.42-4,9.14-4a41.3,41.3,0,0,1,5.27.5c2.13.28,4.54.6,7.6.78,5.58.33,16.34.52,28.78.52s23.21-.19,28.79-.52c3.06-.18,5.47-.5,7.6-.78a41.3,41.3,0,0,1,5.27-.5c2.72,0,5.19.66,9.13,4,1.17,1,2.85,2.36,4.76,3.92C257.42,15.81,265,22,266.57,23.76h0a7,7,0,0,1,.36,1.09l.42,1.6,1.58.51c48.56,15.42,74,30.8,86.72,41,23.71,18.92,26.88,108.91,25.24,147.43H318.52v271Z"/><path class="cls-4" d="M194.54,4.26,158.47,2.63s-13,18-1.37,48c4.61,7.35,35.24,25.93,36.43,34.17C200.22,75.06,221,57.38,229.16,58,232,49.54,240,24.22,233.88,14.4S226.8,2.63,226.8,2.63Z"/><path class="cls-5" d="M233.53,10.16s3.6,24.67-10.27,37c-3.68,3.28-7.47,6.41-11,9.24a29,29,0,0,1-36,0c-3.58-2.83-7.37-6-11-9.24-13.87-12.35-10.27-37-10.27-37-6.76,13.3,2.47,54.34,6.93,58,4.14,3.34,18.06,11.37,32.84,50.43L198.39,108a22.28,22.28,0,0,1,.88-2.45c.14.09.87-1.84.87-1.84l1.4-1.57c2.61-10.72,6.15-21.56,22.69-31.46C229.16,67.71,240.29,23.46,233.53,10.16Z"/><path class="cls-5" d="M175.76,79.49s-7.2-8.7-15.58-11.07S137.89,61.63,132.37,53a210,210,0,0,1-11.11-20.74,49.76,49.76,0,0,0,8.12,39.42,6.41,6.41,0,0,0,4.81,2.66c6.05.41,18.83,4.07,27.15,7.09,9.33,3.38,22,8.47,28.85,27.46"/><path class="cls-5" d="M211.63,79.49s8.55-8.7,16.94-11.07,22.29-6.79,27.8-15.41a207.6,207.6,0,0,0,11.11-20.74,49.73,49.73,0,0,1-8.11,39.42,6.44,6.44,0,0,1-4.82,2.66c-6.05.41-40,2.53-53.36,23.14"/><polygon class="cls-6" points="379.27 215.37 316.92 215.37 316.92 186.49 379.15 186.49 379.27 215.37"/><polygon class="cls-6" points="71.09 215.37 8.75 215.37 8.75 186.49 70.98 186.49 71.09 215.37"/><path class="cls-5" d="M71.39,154.6s-9,60.77-25.54,60.77h25.5S71.39,185,71.39,154.6Z"/><path class="cls-5" d="M317.35,154.6s9,60.77,25.54,60.77h-25.5S317.35,185,317.35,154.6Z"/><path class="cls-4" d="M230.29,5.32c16.68,19-7.1,64.75-7.1,64.75L257,62.25c10.48-11.19,9.91-36,7.81-38.32s-15-12.69-19.58-16.55c-7.68-6.42-10.48-3.49-22.36-2.8s-45.63.7-57.51,0S150.72,1,143,7.38c-4.61,3.86-17.48,14.23-19.58,16.55s-2.67,27.13,7.81,38.32l33.86,7.82S141.34,24.35,158,5.32"/><path class="cls-7" d="M235.21,22.45c-3.05.09-6.64.93-12.3,1.26-11.88.7-45.63.7-57.51,0-5.66-.33-9.25-1.17-12.3-1.26"/><path class="cls-7" d="M230.29,5.32c16.68,19-7.1,64.75-7.1,64.75L257,62.25c10.48-11.19,9.91-36,7.81-38.32s-15-12.69-19.58-16.55c-7.68-6.42-10.48-3.49-22.36-2.8s-45.63.7-57.51,0S150.72,1,143,7.38c-4.61,3.86-17.48,14.23-19.58,16.55s-2.67,27.13,7.81,38.32l33.86,7.82S141.34,24.35,158,5.32"/><path class="cls-7" d="M122.22,26.69C97.81,34.4,58.53,48.82,34.45,68.05,4.14,92.25,9,215.37,9,215.37H71.39"/><path class="cls-7" d="M266.09,26.69c24.41,7.71,63.69,22.13,87.77,41.36,30.31,24.2,25.41,147.32,25.41,147.32H316.92"/><polyline class="cls-7" points="316.92 145.6 316.92 487.37 71.39 487.37 71.39 145.6"/><line class="cls-8" x1="316.92" y1="476.87" x2="72.52" y2="476.87"/><path class="cls-8" d="M235.21,28.45c-3.05.09-6.64.93-12.3,1.26-11.88.7-45.63.7-57.51,0-5.66-.33-9.25-1.17-12.3-1.26"/><line class="cls-8" x1="71.09" y1="186.49" x2="8.75" y2="186.49"/><line class="cls-8" x1="379.27" y1="186.49" x2="316.92" y2="186.49"/><polygon class="cls-9" points="258.75 116.05 293.14 150.44 224.35 150.44 258.75 116.05 258.75 116.05"/><polygon class="cls-10" points="258.75 184.84 293.14 150.44 224.35 150.44 258.75 184.84 258.75 184.84"/><path class="cls-11" d="M258.74,183.94l33.5-33.5L258.74,117l-33.49,33.49,33.49,33.5Zm34.85-33.05-34.39,34.4-.46.45-.45-.45-34.39-34.4-.46-.45.46-.45,34.39-34.4.45-.45.46.45L293.59,150l.46.45-.46.45Z"/><path class="cls-12" d="M258.74,135.77a14.67,14.67,0,1,1-14.67,14.67,14.67,14.67,0,0,1,14.67-14.67Z"/><path class="cls-13" d="M253.69,143.08v15.14A2.94,2.94,0,0,1,251,160c.72,1.56,2.35,1.05,3.53-.32,1.94,2.12,4.27,2.42,5.59.21a4.92,4.92,0,0,1-4.54-1.63v-15a8.11,8.11,0,0,1,4.51-2c1.64-.05,3.44,2.16,3.41,4.19-.1,3.54-2.38,6.62-6.68,4.33-1-.57-1.17.83-.51,1.24a8.38,8.38,0,0,0,4.79,1.38c3.5,0,5.21-2.84,5.31-6.22,0-4-2-6.7-6-6.7a7.07,7.07,0,0,0-5,2.33.74.74,0,0,1-1,0l-1.56-1.68c-.73-.77-1.74-.24-.91.73.69.77,1.74,1.54,1.74,2.19Z"/><path class="cls-13" d="M257.45,143.93v12.83c0,.43-.28.65-.85,1.06a1.51,1.51,0,0,0,1.35-.5c.35-.38.47-.31.83,0a2.35,2.35,0,0,0,2.11.62,3.68,3.68,0,0,1-1.64-1.71V144.71c0-.52.86-1.43,1.33-1.8a2.22,2.22,0,0,0-1.64.62.86.86,0,0,1-.85,0,1.87,1.87,0,0,0-1.33-.66c.34.35.69.6.69,1.06Z"/><line class="cls-14" x1="184.4" y1="113.94" x2="202.38" y2="98.83"/><path class="cls-14" d="M175.74,90.21s24.69,1.86,49.39-16.84c0,0,8.86,26.1,3.47,40.57s-4.45,21.9-3.35,25.53"/><line class="cls-14" x1="184.4" y1="130.67" x2="196" y2="120.92"/><path class="cls-7" d="M225.13,70.07s-31.9,19.56-31,65.7"/><path class="cls-14" d="M211.63,90.21s-24.69,1.86-49.39-16.84c0,0-.43,25.09-5.55,35.53s-4.56,28.37-1.53,36.7"/><line class="cls-14" x1="203.97" y1="130.67" x2="191.8" y2="120.44"/><line class="cls-14" x1="203.97" y1="113.94" x2="186.11" y2="98.93"/><path class="cls-8" d="M156.69,68.12s26.06,30.38,23.36,67.65c-.49,14.32,14.6,14.46,14.6,14.46s14.12,0,14.29-13.64c.68-11.18-.7-53.29,26.37-68.47"/><path class="cls-7" d="M163.94,70.07s29.29,17.81,30.22,65.7"/><path class="cls-14" d="M199.42,86.68c-13.66,4.29-23.68,3.53-23.68,3.53"/><line class="cls-14" x1="184.4" y1="113.94" x2="194.07" y2="105.82"/></svg>