<svg xmlns="http://www.w3.org/2000/svg" viewBox="0 0 390 490"><defs><style>.cls-1{isolation:isolate;}.cls-2{font-size:150.66px;font-family:Gotham-Ultra, Gotham;}.cls-10,.cls-2,.cls-5,.cls-9{fill:none;}.cls-2,.cls-5{stroke:#fff;stroke-miterlimit:10;}.cls-3{letter-spacing:-0.03em;}.cls-12,.cls-4{fill:#0a337c;}.cls-10,.cls-5{stroke-width:2px;}.cls-11,.cls-6{fill:#fff;}.cls-7{mix-blend-mode:multiply;}.cls-8{fill:#08254f;}.cls-10,.cls-9{stroke:#000;stroke-linecap:round;stroke-linejoin:round;}.cls-9{stroke-width:5px;}.cls-11,.cls-12{fill-rule:evenodd;}</style></defs><title>2003</title><g class="cls-1"><g id="camisas"><text class="cls-2" transform="translate(7.8 -49.39)">20<tspan class="cls-3" x="204.14" y="0">0</tspan><tspan x="309.6" y="0">3</tspan></text></g><g id="arquivado"><path class="cls-4" d="M74.08,479l-1-284h-62s-3-13-2-44,0-62,13-81,31-24,63-36,61-23,61-23h98s27,10,55,21,53,18,61,28,22,20,21,72-2,63-2,63h-62s-1,77-1,164V479Z"/><path class="cls-5" d="M316,113.12s-20.49,50.3-17.14,149.31c0,0,.18,70.34,17.14,197.56"/><path class="cls-5" d="M73.37,113.12s20.49,50.3,17.15,149.31c0,0-.19,70.34-17.15,197.56"/><path class="cls-6" d="M136.7,15.11s-10.15,12.18,5.67,30.36c15.81,14.42,26.37,22.14,26.37,22.14l4.82-6.3a103.43,103.43,0,0,1-25.9-19.48c-6.63-9.91-11.14-15.49-4.39-27.36-2.63-1-9.49,1.58-9.49,1.58"/><path class="cls-6" d="M253.66,15.11S263.82,27.29,248,45.47c-15.81,14.42-26.38,22.14-26.38,22.14l-4.81-6.3a103.43,103.43,0,0,0,25.9-19.48c6.62-9.91,11.14-15.49,4.39-27.36,2.62-1,9.49,1.58,9.49,1.58"/><path class="cls-5" d="M262.9,37.13s68.57,29.72,71.22,67.43c2.54,36.18-2.35,46.26-15.65,63.25"/><path class="cls-5" d="M126.23,37.13S57.67,66.85,55,104.56c-2.55,36.18,2.35,46.26,15.65,63.25"/><g class="cls-7"><path class="cls-8" d="M66.23,139s-2,56-18.5,56h25.5S74.23,158,66.23,139Z"/><path class="cls-8" d="M323.77,139s2,56,18.5,56h-25.5S315.77,158,323.77,139Z"/></g><path class="cls-8" d="M194.93,77s-23-13-41-30-18-24-13-30l5-6s-1,11,12,21c19.69,15.14,54.45,15.14,74.14,0,13-10,12-21,12-21l5,6c5,6,5,13-13,30s-41,30-41,30Z"/><path class="cls-9" d="M245.18,12l1.55,2.47c5.3,8.44,4.09,18.79-3.14,26.12-9,9.09-24.21,22-48.61,36.41h0c-24.4-14.36-39.64-27.32-48.61-36.41-7.23-7.33-8.44-17.68-3.14-26.12L144.82,12"/><path class="cls-10" d="M262.54,17.55c4.57,9.45,2.72,19.38-5.12,27.32-10.6,10.75-33.6,31.07-62.44,48h0c-28.84-17-51.84-37.29-62.44-48-7.84-7.94-9.69-17.88-5.12-27.33"/><line class="cls-10" x1="140.89" y1="20.98" x2="249.11" y2="20.98"/><rect class="cls-6" x="316.77" y="178.5" width="62.34" height="16"/><rect class="cls-6" x="10.89" y="178.5" width="62.34" height="16"/><path class="cls-9" d="M65.89,138.5s8,11,8,93v247H316.11v-247c0-82,8-93,8-93"/><path class="cls-9" d="M73.23,194.5H10.89s-4-51,0-88,17-50,48-62,87-33,87-33h98.22s56,21,87,33,44,25,48,62,0,88,0,88H316.77"/><line class="cls-10" x1="316" y1="468" x2="74" y2="468"/><line class="cls-10" x1="379.11" y1="178.5" x2="316.77" y2="178.5"/><line class="cls-10" x1="73.23" y1="178.5" x2="10.89" y2="178.5"/><path class="cls-11" d="M276.51,152.26a24.58,24.58,0,1,1-24.58-24.58,24.59,24.59,0,0,1,24.58,24.58"/><path class="cls-4" d="M251.93,130.31a21.95,21.95,0,1,1-22,21.95,22,22,0,0,1,22-21.95m0-1.24a23.19,23.19,0,1,0,23.18,23.19,23.21,23.21,0,0,0-23.18-23.19Z"/><path class="cls-12" d="M251.93,136.83a15.43,15.43,0,1,0,15.36,15.43,15.42,15.42,0,0,0-15.36-15.43"/><polyline class="cls-11" points="252.31 159.97 252.91 161.82 252.91 161.82 254.86 161.82 253.29 162.96 253.89 164.81 252.31 163.67 250.74 164.81 251.34 162.96 251.34 162.96 251.34 162.96 249.77 161.82 251.71 161.82 251.71 161.82 251.71 161.82 252.31 159.97"/><polyline class="cls-11" points="260.6 147.1 261.2 148.95 261.2 148.95 263.15 148.95 261.57 150.09 262.18 151.94 260.6 150.8 259.03 151.94 259.63 150.09 259.63 150.09 259.63 150.09 258.06 148.95 260 148.95 260 148.95 260 148.95 260.6 147.1"/><polyline class="cls-11" points="254.45 150.79 254.89 152.16 254.89 152.16 256.34 152.16 255.17 153.02 255.62 154.39 254.45 153.54 253.28 154.39 253.72 153.02 253.72 153.02 253.72 153.02 252.55 152.16 254 152.16 254 152.16 254 152.16 254.45 150.79"/><polyline class="cls-11" points="251.93 139.42 252.53 141.27 252.53 141.27 254.48 141.27 252.91 142.42 253.51 144.27 251.93 143.12 250.36 144.27 250.96 142.42 250.96 142.42 250.96 142.42 249.39 141.27 251.33 141.27 251.33 141.27 251.33 141.27 251.93 139.42"/><polyline class="cls-11" points="243.5 146.94 244.1 148.79 244.1 148.79 246.04 148.79 244.47 149.94 245.07 151.79 243.5 150.65 241.92 151.79 242.52 149.94 242.52 149.94 242.52 149.94 240.95 148.79 242.89 148.79 242.89 148.79 242.89 148.79 243.5 146.94"/><path class="cls-12" d="M236.72,141.08a.68.68,0,0,0-.9.22c-.35.51,0,1,.51,1.32s1.08.49,1.42,0c.25-.36.09-.68-.2-1l.72-1.07a1.84,1.84,0,0,1,.39,2.6,2.23,2.23,0,0,1-3.7-2.48,1.73,1.73,0,0,1,2.47-.66l-.71,1.06"/><path class="cls-12" d="M239.9,138.05l.54-.43c.19-.15.42-.39.18-.69s-.38-.23-.77.08l-.48.38Zm-2.18-.62,1.94-1.57a1.24,1.24,0,0,1,1.84.08,1.1,1.1,0,0,1,.18,1.23,1.16,1.16,0,0,1,1.15.43c.14.15.46.55.68.62l-1,.83a3.49,3.49,0,0,1-.49-.45c-.29-.29-.58-.6-1-.27l-.55.43.93,1.16-1,.82-2.66-3.31"/><path class="cls-12" d="M247.31,134.86c.43,1.1,0,1.86-1.17,2.33s-2,.18-2.44-.92l-.95-2.43,1.22-.47.84,2.16c.16.4.36.91.95.67s.38-.73.22-1.13l-.84-2.16,1.22-.48.95,2.43"/><polyline class="cls-12" points="248.78 135.17 250.6 132.89 248.74 133.03 248.66 131.94 252.24 131.68 252.31 132.63 250.48 134.98 252.57 134.82 252.65 135.91 248.86 136.19 248.78 135.17"/><polyline class="cls-12" points="254.53 131.84 257.97 132.59 257.74 133.66 255.58 133.19 255.46 133.71 257.43 134.13 257.21 135.12 255.25 134.69 255.14 135.21 257.36 135.7 257.13 136.76 253.62 136 254.53 131.84"/><polyline class="cls-12" points="259.94 133.39 261.13 133.94 259.32 137.8 258.14 137.24 259.94 133.39"/><path class="cls-12" d="M262.9,137.22l.54.42c.19.16.48.33.72,0s.14-.43-.25-.73l-.48-.38ZM263,135l2,1.54a1.23,1.23,0,0,1,.34,1.81,1.09,1.09,0,0,1-1.16.45A1.15,1.15,0,0,1,264,140a3.06,3.06,0,0,0-.45.81l-1-.81a3.37,3.37,0,0,1,.32-.59c.22-.34.46-.69.05-1l-.55-.43-.92,1.17-1-.81L263,135"/><path class="cls-12" d="M266.09,142.59c.19.27.66.57,1.44,0s.68-1.08.49-1.35-.66-.58-1.44-.05S265.9,142.31,266.09,142.59Zm2.81-1.91a2.23,2.23,0,1,1-3.06-.53,2.11,2.11,0,0,1,3.06.53"/><polyline class="cls-12" points="268.25 152.77 267.99 149.26 269.07 149.18 269.24 151.38 269.77 151.34 269.62 149.34 270.63 149.26 270.78 151.27 271.31 151.23 271.14 148.96 272.23 148.88 272.5 152.45 268.25 152.77"/><path class="cls-12" d="M270.86,156.92l.16-.75c.06-.27,0-.52-.29-.59s-.41.07-.48.37l-.17.8Zm-1.55-.33.14-.68c.06-.27,0-.45-.25-.51s-.32.11-.38.38l-.14.67Zm-1.9.93.49-2.28c.24-1.09.91-1.19,1.33-1.1a.89.89,0,0,1,.71.69,1,1,0,0,1,1.19-.5,1.36,1.36,0,0,1,.95,1.72l-.51,2.36-4.16-.89"/><path class="cls-12" d="M269.31,159.81c1,.58,1.21,1.41.58,2.55s-1.44,1.41-2.47.84l-2.28-1.28.64-1.14,2,1.13c.38.21.86.48,1.17-.08s-.17-.8-.55-1l-2-1.13.64-1.14,2.27,1.27"/><polyline class="cls-12" points="262.27 164.92 263.2 163.99 265.43 166.23 266.76 164.9 267.53 165.68 265.27 167.93 262.27 164.92"/><path class="cls-12" d="M261.17,167.57a.67.67,0,0,0-.9-.21c-.53.29-.42.91-.14,1.41s.74.93,1.27.63.39-.57.26-1l1.13-.62a1.82,1.82,0,0,1-.84,2.49,2.23,2.23,0,0,1-2.16-3.9,1.75,1.75,0,0,1,2.5.54l-1.12.62"/><polyline class="cls-12" points="251.17 168.65 254.68 168.44 254.75 169.52 252.54 169.66 252.58 170.19 254.58 170.06 254.65 171.07 252.64 171.2 252.67 171.73 254.94 171.59 255.01 172.68 251.43 172.9 251.17 168.65"/><polyline class="cls-12" points="247.6 169.12 246.43 168.87 246.66 167.8 250.27 168.6 250.04 169.66 248.88 169.41 248.2 172.5 246.92 172.22 247.6 169.12"/><path class="cls-12" d="M242.79,168l.61.33c.21.12.52.24.71-.09s.07-.45-.37-.69l-.54-.29Zm-.25-2.26,2.19,1.2a1.24,1.24,0,0,1,.63,1.73,1.08,1.08,0,0,1-1.07.63,1.16,1.16,0,0,1,0,1.23,2.68,2.68,0,0,0-.32.87l-1.14-.63a3,3,0,0,1,.22-.63c.16-.37.33-.76-.12-1l-.61-.34-.72,1.3-1.15-.63,2-3.73"/><path class="cls-12" d="M237.87,165.86c.23.24.74.46,1.43-.2s.49-1.18.25-1.42-.74-.46-1.42.2S237.64,165.62,237.87,165.86Zm2.45-2.35a2.23,2.23,0,1,1-3.1,0,2.09,2.09,0,0,1,3.1,0"/><path class="cls-12" d="M235.49,160.1l.23.46c.16.3.34.61.72.41s.23-.45.09-.74l-.27-.52Zm1.16-2,1,2a1.44,1.44,0,0,1-.6,2.05,1.46,1.46,0,0,1-2.1-.81l-.35-.69-1.15.58-.59-1.17,3.8-1.92"/><path class="cls-12" d="M233.1,155.34a.88.88,0,0,0-.26.1.62.62,0,0,0-.19.68c0,.21.18.52.49.45s.24-.23.3-1,.09-1.49.93-1.65,1.55.55,1.71,1.41,0,1.78-1,2l-.24-1.21a.33.33,0,0,0,.31-.22.77.77,0,0,0,0-.4c0-.18-.14-.45-.37-.41s-.24.69-.29,1.31-.21,1.27-1,1.41c-1.09.22-1.63-.71-1.81-1.64-.1-.48-.19-1.86,1.14-2.13l.25,1.28"/><polyline class="cls-12" points="235.88 149.18 235.6 152.69 234.51 152.6 234.69 150.4 234.16 150.35 234 152.35 232.99 152.27 233.15 150.27 232.62 150.23 232.44 152.5 231.35 152.41 231.64 148.84 235.88 149.18"/><path class="cls-11" d="M246,104h0Zm0-.11Zm0,0-.36.42a1.21,1.21,0,0,1,.09-.2l.06-.22c.06-.18.15-.18.15-.18s.06.19.06.19h0s0,.09,0,.11h0a1,1,0,0,1,0,.3h0a.15.15,0,0,0-.15.15.17.17,0,0,0,0,.12h-.32a.71.71,0,0,1,.06-.26Zm3.07,18.54v-.2c0-.07-.06-.14-.18-.2v-6.1s0,0-.14,0a.11.11,0,0,0-.05,0,.9.9,0,0,0-.16-.57.37.37,0,0,1-.08-.2.7.7,0,0,0-.29-.5.11.11,0,0,1,0-.1.5.5,0,0,0,0-.16h0a1.4,1.4,0,0,0-.43,0s0-.14,0-.31-.12-.13-.15-.17A1.12,1.12,0,0,1,247,114a2.23,2.23,0,0,1-.22-.47,14.35,14.35,0,0,1-.4-1.84,2.26,2.26,0,0,1,0-1s.07-.2,0-.23a.4.4,0,0,0-.22-.07l-.24,0a.41.41,0,0,1,.06-.18.33.33,0,0,0,0-.13.17.17,0,0,1,.06-.11s0-.09,0-.14a.15.15,0,0,1,.06-.09s0,0,0-.11a2.25,2.25,0,0,0,1.64-1.72.55.55,0,0,0,.17,0c0,.05.1.07.15.08v0s.12.06.12.06a.17.17,0,0,0,.15.09c0,.1.2.07.2.07a6.22,6.22,0,0,0,0-1.43h0c-.2,0-.2.07-.2.07a.15.15,0,0,0-.17.08c-.15,0-.14.09-.14.09s-.15,0-.15.08a.43.43,0,0,0-.18-.14h0a2.21,2.21,0,0,0-1.71-1.78v-.07s0,0-.06-.06-.05,0-.06,0a.12.12,0,0,0-.08-.05s-.06,0-.06-.08a.08.08,0,0,1,0-.08c.25,0,.42,0,.42-.08h0s-.07-.1-.26-.14a.17.17,0,0,0,.09-.14v0c0-.09,0-.19,0-.19a1.4,1.4,0,0,0,0-.23.66.66,0,0,1,0-.23c0-.09,0-.33,0-.39s.05-.12.07-.18,0,0,0,0,0,0,0,0,.06.11.1.22.1.16.15.15-.11-.32-.13-.37,0-.11,0-.15a1.88,1.88,0,0,0-.22-.26s.05-.12.05-.12,0-.25-.12-.26-.15.25-.15.3,0,.08-.11.08a.43.43,0,0,0-.28.13.19.19,0,0,1-.23,0c-.09,0-.22,0-.22,0a.11.11,0,0,0,.05.1s.14,0,.22,0a.28.28,0,0,0,.21,0s0,0,.11,0,.07,0,.08.12a1.3,1.3,0,0,1-.1.36c0,.1-.14.4-.2.53a2.92,2.92,0,0,0-.11.47s0,0,0,0-.32.06-.36.15-.05.12.38.1c0,0,.08.08,0,.13l-.06,0a.21.21,0,0,0-.1.13s0,0,0,.05a2.28,2.28,0,0,0-1.79,1.69.55.55,0,0,0-.21.1h0c0-.06-.1-.07-.15-.08s0-.09-.15-.09a.15.15,0,0,0-.17-.08s0-.11-.19-.07h0a5.86,5.86,0,0,0,.06,1.43s.18,0,.19-.07.12,0,.15-.09.12,0,.13-.06v0s.12,0,.14-.07a1.1,1.1,0,0,0,.16,0v0s0,.09,0,.13a2.3,2.3,0,0,0,1.53,1.7c0,.1,0,.11,0,.14a.15.15,0,0,1,.06.09s0,.12,0,.14v0a.16.16,0,0,1,0,.09.21.21,0,0,0,0,.13.36.36,0,0,1,.06.17l-.16,0-.35,0c.42,2.88-.8,3.94-.8,3.94v.32a2.1,2.1,0,0,0-.56,0,.62.62,0,0,0,0,.16.09.09,0,0,1,0,.1.7.7,0,0,0-.29.5.36.36,0,0,1-.07.2.87.87,0,0,0-.17.57.11.11,0,0,0-.05,0h0c-.1,0-.15,0-.15,0h0v6.08h0c-.13.06-.21.13-.22.2v.22a.39.39,0,0,0-.22.19v.25h0c0,.33,1.52.59,3.4.59s3.39-.26,3.39-.59V123c0-.07-.08-.14-.23-.21"/><path class="cls-11" d="M259.37,104h0Zm0-.11Zm0,0-.36.42s.09-.2.09-.2,0,0,.07-.22.15-.18.15-.18.05.19.05.19h0a.49.49,0,0,0,0,.11h0a.76.76,0,0,1,0,.3h0a.15.15,0,0,0-.15.15.17.17,0,0,0,.05.12h-.32A.74.74,0,0,1,259,104.29Zm3.08,18.54v-.2c0-.07-.06-.14-.18-.2v-6.1s0,0-.14,0a.11.11,0,0,0-.05,0,.87.87,0,0,0-.17-.57.47.47,0,0,1-.07-.2.7.7,0,0,0-.29-.5.11.11,0,0,1,0-.1.5.5,0,0,0,0-.16h0a1.4,1.4,0,0,0-.43,0s0-.14,0-.31-.12-.13-.15-.17a1.12,1.12,0,0,1-.17-.21,2.23,2.23,0,0,1-.22-.47,14.35,14.35,0,0,1-.4-1.84,2.26,2.26,0,0,1,0-1s.07-.2,0-.23,0,0-.21-.07l-.24,0a.41.41,0,0,1,.06-.18.21.21,0,0,0,0-.13.26.26,0,0,1,.07-.11.39.39,0,0,0,0-.14.15.15,0,0,1,.06-.09s0,0,0-.11a2.25,2.25,0,0,0,1.64-1.72.55.55,0,0,0,.17,0c0,.05.1.07.15.08v0s.12.06.12.06.15.09.15.09.2.07.2.07a6.22,6.22,0,0,0,0-1.43h0c-.2,0-.2.07-.2.07a.15.15,0,0,0-.17.08c-.15,0-.14.09-.14.09s-.15,0-.15.08a.43.43,0,0,0-.18-.14h0a2.18,2.18,0,0,0-1.71-1.78v-.07s0,0,0-.06-.05,0-.06,0a.12.12,0,0,0-.08-.05s-.06,0-.06-.08a.08.08,0,0,1,0-.08c.25,0,.42,0,.42-.08h0s-.07-.1-.26-.14a.17.17,0,0,0,.09-.14,0,0,0,0,0,0,0l0-.19a.83.83,0,0,0,0-.23,1.2,1.2,0,0,1,0-.23c0-.09,0-.33,0-.39s.05-.12.07-.18,0,0,.05,0,0,0,0,0,.06.11.1.22.1.16.15.15-.11-.32-.13-.37a1.13,1.13,0,0,1,0-.15,1.88,1.88,0,0,0-.22-.26s.05-.12.05-.12.05-.25-.12-.26-.15.25-.15.3,0,.08-.11.08a.43.43,0,0,0-.28.13.19.19,0,0,1-.23,0c-.09,0-.22,0-.22,0a.11.11,0,0,0,.05.1c.05,0,.14,0,.22,0a.28.28,0,0,0,.21,0s0,0,.11,0,.07,0,.08.12a1.3,1.3,0,0,1-.1.36c0,.1-.14.4-.2.53a2.92,2.92,0,0,0-.11.47l0,0c-.14,0-.32.06-.36.15s-.05.12.38.1c0,0,.08.08,0,.13l-.06,0a.21.21,0,0,0-.1.13s0,0,0,.05a2.28,2.28,0,0,0-1.79,1.69.55.55,0,0,0-.21.1h0c0-.06-.1-.07-.15-.08s0-.09-.15-.09a.15.15,0,0,0-.17-.08s0-.11-.19-.07h0A5.86,5.86,0,0,0,256,108s.18,0,.19-.07.12,0,.15-.09.12,0,.12-.06v0c.05,0,.13,0,.15-.07a1.1,1.1,0,0,0,.16,0v0s0,.09,0,.13a2.3,2.3,0,0,0,1.53,1.7c0,.1,0,.11,0,.14a.15.15,0,0,1,.06.09.39.39,0,0,0,0,.14l0,0a.26.26,0,0,1,0,.09.21.21,0,0,0,0,.13.36.36,0,0,1,.06.17l-.16,0-.35,0c.42,2.88-.8,3.94-.8,3.94v.32a2,2,0,0,0-.56,0,.62.62,0,0,0,0,.16.11.11,0,0,1,0,.1.7.7,0,0,0-.29.5.36.36,0,0,1-.07.2.87.87,0,0,0-.17.57.11.11,0,0,0-.05,0h0c-.1,0-.15,0-.15,0h0v6.08h0c-.13.06-.21.13-.22.2v.22a.39.39,0,0,0-.22.19v.25h0c0,.33,1.52.59,3.4.59s3.39-.26,3.39-.59V123c0-.07-.08-.14-.23-.21"/><path class="cls-11" d="M122.17,157.91l-.67,1h-2.1l-2.1,3.15h-2l2.1-3.15h-2l.67-1Z"/><path class="cls-11" d="M127.13,158.34a2.93,2.93,0,0,0-2-.51,8.74,8.74,0,0,0-1.14.08,5.53,5.53,0,0,0-1.21.31,5.13,5.13,0,0,0-1.14.61,4.1,4.1,0,0,0-.83.76,2.59,2.59,0,0,0-.47.83,1,1,0,0,0,.36,1.27,3.53,3.53,0,0,0,2,.45,7.49,7.49,0,0,0,1.17-.09,6.4,6.4,0,0,0,1.25-.37,4.61,4.61,0,0,0,1.18-.67,3.55,3.55,0,0,0,.75-.76,2.41,2.41,0,0,0,.34-.65A1.12,1.12,0,0,0,127.13,158.34Zm-4.44,2a1.88,1.88,0,0,1,.33-.55,1.94,1.94,0,0,1,.62-.52,1.57,1.57,0,0,1,.77-.19.86.86,0,0,1,.55.15.39.39,0,0,1,.08.46,2.29,2.29,0,0,1-.29.46,2,2,0,0,1-.62.53,1.53,1.53,0,0,1-.8.22.83.83,0,0,1-.56-.16.35.35,0,0,1-.08-.4Zm6.33-2.43H132a4.47,4.47,0,0,1,1.22.12.93.93,0,0,1,.52.38.75.75,0,0,1,0,.61,1.63,1.63,0,0,1-.67.83,3.3,3.3,0,0,1-1.16.52,7.29,7.29,0,0,1-1.71.16h-.89l-1,1.54h-2l2.79-4.16Zm.82,1.8h.67a1.84,1.84,0,0,0,.83-.18.77.77,0,0,0,.44-.43c.08-.25-.08-.37-.5-.37h-.78l-.66,1Zm5.07-1.8h3a4.44,4.44,0,0,1,1.21.12.89.89,0,0,1,.52.38.75.75,0,0,1,0,.61,1.7,1.7,0,0,1-.68.83,3.3,3.3,0,0,1-1.16.52,7.18,7.18,0,0,1-1.71.16h-.88l-1,1.54h-2l2.79-4.16Zm.82,1.8h.66a1.81,1.81,0,0,0,.83-.18.77.77,0,0,0,.44-.43c.09-.25-.08-.37-.5-.37h-.77l-.66,1Zm10.36-1.8-.6.89h-3.28l-.45.66h3.17l-.57.84H141.2l-.54.82h3.56l-.63.95H138l2.78-4.16Zm.93.09h4.06a2.27,2.27,0,0,1,1.42.32.66.66,0,0,1,.21.78,1.77,1.77,0,0,1-.83.85,4.45,4.45,0,0,1-1.81.46,3,3,0,0,1,1,1.75h-2.35c-.08-.3-.49-.95-.62-1.31l-.82-.09-1,1.4H144Zm1,1.69h.42a12.52,12.52,0,0,0,1.38-.05,1.37,1.37,0,0,0,.53-.2.6.6,0,0,0,.25-.26.19.19,0,0,0-.09-.25,1.85,1.85,0,0,0-.75-.09h-1.12l-.62.85Z"/><path class="cls-11" d="M133.14,147.45l3.06-4.84a1.4,1.4,0,0,1,1-.59h6.14a18.31,18.31,0,0,0-9.5-2.43c-5.91,0-10.92,2.35-12.69,5.61h10.68c.36,0,.49.26.28.59l-2.69,4.25a1.37,1.37,0,0,1-1,.59h-7.09a11.32,11.32,0,0,0,6.34,4.43l3.9-5.54a1.35,1.35,0,0,1,1.06-.5l5,.25c.38,0,.53.28.32.57L133.65,156h.22c7.25,0,13.15-3.54,13.36-8H133.42C133.06,148,132.93,147.78,133.14,147.45Z"/><path class="cls-6" d="M146.45,147.57h-11.6a.67.67,0,0,1-.63-.33.75.75,0,0,1,.07-.77l2.69-4.25a1.67,1.67,0,0,1,1.31-.74h11.59a.7.7,0,0,1,.64.33.74.74,0,0,1-.08.76l-2.69,4.26A1.66,1.66,0,0,1,146.45,147.57Zm-11.64-.67h11.64a1.06,1.06,0,0,0,.75-.44l2.68-4.25a.2.2,0,0,0,0-.08H138.29a1,1,0,0,0-.75.43l-2.69,4.26Z"/><path class="cls-6" d="M155.64,245.32V217.57h18.53v7.91h-8.43v2.84h7.41v7.29h-7.41v9.71Z"/><path class="cls-6" d="M177.46,245.32V217.57h10.11v27.75Z"/><path class="cls-6" d="M201,241.85l-.74,3.47H189.61l9.62-27.75h11.16l9.91,27.75H209.6l-.91-3.47Zm1.89-6.58h4l-1.29-5.34c-.13-.57-.25-1.12-.34-1.64s-.17-1-.22-1.47h-.36a25.75,25.75,0,0,1-.48,3.11Z"/><path class="cls-6" d="M225.53,245.32v-19l-5.7.27v-9H241v9l-5.57-.27v19Z"/><path class="cls-6" d="M165.08,256.08l-3.7,7.41a8.76,8.76,0,0,0-6.1-2.5,2.19,2.19,0,0,0-1.35.41,1.24,1.24,0,0,0-.55,1,1.12,1.12,0,0,0,.57,1,3.77,3.77,0,0,0,.89.37c.4.13.92.27,1.54.42a12.83,12.83,0,0,1,5,2.16,7.26,7.26,0,0,1,2.57,5.86,9,9,0,0,1-3.58,7.14,13,13,0,0,1-8.56,3c-3.24,0-6.91-1.1-11-3.3l3.74-7.5a9,9,0,0,0,3.13,2.41,8.44,8.44,0,0,0,3.82.88,2.91,2.91,0,0,0,1.68-.44,1.35,1.35,0,0,0,.63-1.16c0-.92-.87-1.58-2.59-2a15.46,15.46,0,0,1-4.57-1.58,7.09,7.09,0,0,1-3.4-6.53,9,9,0,0,1,3.33-7,11.8,11.8,0,0,1,8.09-2.91A22.28,22.28,0,0,1,165.08,256.08Z"/><path class="cls-6" d="M172.47,281.66v-19l-5.7.27v-9h21.17v9l-5.57-.27v19Z"/><path class="cls-6" d="M190.26,281.66V253.91h10.1v27.75Z"/><path class="cls-6" d="M205.18,281.66V253.91h10.1v18.82h8.5v8.93Z"/><path class="cls-6" d="M225.13,267.55a13.47,13.47,0,0,1,3.81-9.49q4.31-4.56,11.65-4.57a15.33,15.33,0,0,1,11,4,13.51,13.51,0,0,1,4.25,10.3,13.3,13.3,0,0,1-4.39,10.3,16.18,16.18,0,0,1-11.27,4,14.94,14.94,0,0,1-10.82-4A14,14,0,0,1,225.13,267.55Zm10.21.14a5.54,5.54,0,0,0,1.44,3.94,5.34,5.34,0,0,0,7.39.05,5.15,5.15,0,0,0,1.42-3.81,5.5,5.5,0,0,0-1.44-3.9,4.79,4.79,0,0,0-3.67-1.54,4.92,4.92,0,0,0-3.68,1.51A5.14,5.14,0,0,0,235.34,267.69Z"/><path class="cls-10" d="M323.77,139S320,86.75,253.09,49.12"/><path class="cls-10" d="M65.13,139s3.72-52.25,70.68-89.88"/><line class="cls-10" x1="195.07" y1="77" x2="195.07" y2="92.91"/><line class="cls-10" x1="172.58" y1="62.5" x2="164.91" y2="72.73"/><line class="cls-10" x1="217.47" y1="61.77" x2="225.14" y2="72"/><path class="cls-6" d="M339.54,56.22c-1.28-1.44-1.93-2.15-3.27-3.55-7,3.29-10.49,4.8-17.34,7.56a95.51,95.51,0,0,1,6.67,7.16l4.11-1.55c-1.34-1.6-2-2.38-3.45-3.92C331.52,59.8,334.18,58.66,339.54,56.22Z"/><path class="cls-6" d="M349.86,73.81a7.48,7.48,0,0,0-1.26-6.67,10,10,0,0,0-6.6-4.26,11.84,11.84,0,0,0-7.88,1.32,7.92,7.92,0,0,0-4.18,4.67c-.63,2.12-.07,4.32,1.58,6.65A9.78,9.78,0,0,0,339.57,80a11.93,11.93,0,0,0,5.57-1.16A8.38,8.38,0,0,0,349.86,73.81Zm-14.3-.41a3.45,3.45,0,0,1-.7-3,4.16,4.16,0,0,1,2.31-2.5,5.89,5.89,0,0,1,3.94-.59,4.9,4.9,0,0,1,3.17,2.06,3.29,3.29,0,0,1,.56,3.12,4.52,4.52,0,0,1-2.5,2.54,5.46,5.46,0,0,1-3.8.45A5.05,5.05,0,0,1,335.56,73.4Z"/><path class="cls-6" d="M360.54,90.26c-.68-1.72-1-2.58-1.79-4.28-4,1.38-6,2-10,3.26q-.62.2-1.08.3a6.23,6.23,0,0,1-.8.13,2.56,2.56,0,0,1-1.19-.16A2.85,2.85,0,0,1,344.24,88a2.4,2.4,0,0,1-.29-1.68,2.43,2.43,0,0,1,1.53-1.44,13.57,13.57,0,0,1,1.39-.53c3.79-1.24,5.71-1.9,9.58-3.29-.84-1.67-1.28-2.49-2.18-4.13-3.82,1.43-5.72,2.1-9.47,3.39-.53.18-1,.35-1.38.5s-.71.27-1,.39a5.66,5.66,0,0,0-3.22,3.32c-.5,1.47-.21,3.21.77,5.21a8.5,8.5,0,0,0,3.56,4,5.13,5.13,0,0,0,2.62.54,18.13,18.13,0,0,0,4.09-.85C354.33,92.26,356.39,91.62,360.54,90.26Z"/><path class="cls-6" d="M355.17,104a8.92,8.92,0,0,0,1.28-3.54c.08-.45.16-.84.24-1.16a3.44,3.44,0,0,1,.23-.69,1.45,1.45,0,0,1,.76-.68,1.18,1.18,0,0,1,1.07,0,1.54,1.54,0,0,1,.7,1,4.58,4.58,0,0,1-.43,3l-.13.32,4.12.46.07-.21a8.45,8.45,0,0,0,.26-5.36,5.46,5.46,0,0,0-3-3.53,5.37,5.37,0,0,0-4.47,0,5.43,5.43,0,0,0-2.51,2,11,11,0,0,0-1.18,3.71,6.28,6.28,0,0,1-.48,1.68,1.21,1.21,0,0,1-.69.6,1.36,1.36,0,0,1-1.23-.09,2,2,0,0,1-.84-1.14,6,6,0,0,1,.22-3.46c0-.12.05-.18.08-.29l-4.16-.47-.05.2c-.14.63-.25,1.21-.33,1.72a10.62,10.62,0,0,0-.11,1.42,8.83,8.83,0,0,0,.48,2.63,5.91,5.91,0,0,0,2.91,3.59,5.55,5.55,0,0,0,4.6.15A5.38,5.38,0,0,0,355.17,104Z"/><path class="cls-6" d="M365.83,108.3c-7.65-.5-11.43-.78-18.91-1.44.52,1.87.76,2.81,1.19,4.7l3.27.24c.42,2,.6,3,.92,4.94-1.17.68-1.75,1-2.91,1.66.27,1.79.39,2.69.57,4.49,6.56-3.54,9.92-5.46,16.72-9.67C366.39,111.24,366.21,110.26,365.83,108.3Zm-5.89,4-1.46.82-2.62,1.51c-.17-1-.27-1.53-.47-2.55l3.42.2c.28,0,.6,0,1,0Z"/><path class="cls-6" d="M367.76,131.44c-3.58.71-5.35,1-8.84,1.64l-1.58.3-.41.09,1-.77c.26-.19.5-.37.72-.55l.66-.54c3.36-2.82,5-4.28,8.38-7.31-.07-1.91-.13-2.87-.3-4.78-7.15,1.67-10.64,2.39-17.43,3.64.17,1.74.24,2.61.33,4.35,3.11-.53,4.69-.81,7.88-1.43.48-.09,1-.21,1.53-.35s.88-.24,1.35-.38c-.4.3-.79.6-1.15.89-.69.54-1.33,1.07-1.91,1.57-3,2.64-4.55,3.92-7.59,6.38,0,1.85-.08,2.77-.2,4.62,6.71-.9,10.17-1.44,17.28-2.74C367.65,134.22,367.7,133.29,367.76,131.44Z"/><path class="cls-6" d="M362.85,152.66a12.78,12.78,0,0,0,3.82-7c.48-2.76-.15-4.81-1.74-6.05s-3.79-1.46-6.5-.74a13.5,13.5,0,0,0-6.26,3.73,13.68,13.68,0,0,0-3.67,7.15c-.63,3.33.11,5.51,2.48,6.44a8.5,8.5,0,0,0,4.86.22A14.17,14.17,0,0,0,362.85,152.66Zm-9.92-4a6.19,6.19,0,0,1,1.68-3.25,7,7,0,0,1,3.41-1.94,3.58,3.58,0,0,1,3.22.42,2.84,2.84,0,0,1,.81,2.9,5.78,5.78,0,0,1-1.81,3.26,7.56,7.56,0,0,1-3.62,1.91,3.23,3.23,0,0,1-3-.51A2.87,2.87,0,0,1,352.93,148.65Z"/><path class="cls-6" d="M20.42,144.1c.17,1.92.28,2.88.53,4.8,7.6,1.51,11.29,2.36,18.44,4.2a97.78,97.78,0,0,1-1.13-9.72c-1.67-.48-2.52-.72-4.23-1.19.14,2.08.23,3.12.46,5.2C29,146,26.18,145.32,20.42,144.1Z"/><path class="cls-6" d="M22.54,123.82a7.51,7.51,0,0,0-2.94,6.12,10.07,10.07,0,0,0,2.79,7.35,11.84,11.84,0,0,0,7.13,3.61,7.89,7.89,0,0,0,6.13-1.29c1.77-1.33,2.62-3.44,2.67-6.29a9.79,9.79,0,0,0-3.82-8.38,11.91,11.91,0,0,0-5.18-2.37A8.35,8.35,0,0,0,22.54,123.82Zm11.27,8.81a3.47,3.47,0,0,1-1.23,2.86,4.16,4.16,0,0,1-3.34.64,5.87,5.87,0,0,1-3.52-1.86,5,5,0,0,1-1.34-3.54,3.35,3.35,0,0,1,1.4-2.85,4.57,4.57,0,0,1,3.52-.56,5.45,5.45,0,0,1,3.33,1.9A5,5,0,0,1,33.81,132.63Z"/><path class="cls-6" d="M23.71,104.24c-.48,1.79-.7,2.69-1.11,4.51,4.08,1.28,6.08,2,10,3.31.4.14.75.27,1,.4a4.76,4.76,0,0,1,.72.37,2.54,2.54,0,0,1,.86.83,2.86,2.86,0,0,1,.28,2,2.41,2.41,0,0,1-.76,1.52,2.46,2.46,0,0,1-2.09.25,10.83,10.83,0,0,1-1.43-.4c-3.79-1.25-5.72-1.85-9.66-3-.32,1.84-.46,2.77-.7,4.62,3.93,1.12,5.85,1.7,9.63,2.89l1.41.42c.4.11.74.19,1,.25a5.63,5.63,0,0,0,4.56-.77c1.28-.89,2.07-2.46,2.47-4.65a8.47,8.47,0,0,0-.5-5.32,5.22,5.22,0,0,0-1.78-2,18.71,18.71,0,0,0-3.8-1.74C29.88,106.31,27.85,105.61,23.71,104.24Z"/><path class="cls-6" d="M36.17,96.38A8.71,8.71,0,0,0,33,98.47c-.33.31-.63.57-.88.78a3,3,0,0,1-.6.42,1.4,1.4,0,0,1-1,.1,1.16,1.16,0,0,1-.85-.65,1.52,1.52,0,0,1,0-1.19,4.57,4.57,0,0,1,2.13-2.16l.3-.18-3.05-2.81-.18.12a8.46,8.46,0,0,0-3.39,4.17,5.46,5.46,0,0,0,.3,4.6,5.33,5.33,0,0,0,3.63,2.61,5.34,5.34,0,0,0,3.17-.08,11,11,0,0,0,3.16-2.28,6.64,6.64,0,0,1,1.38-1.08,1.23,1.23,0,0,1,.91-.07,1.36,1.36,0,0,1,.94.8A2,2,0,0,1,39,103a6,6,0,0,1-2.24,2.66l-.24.18,3.09,2.85.15-.14c.49-.42.92-.82,1.28-1.18a9.33,9.33,0,0,0,.93-1.08,8.08,8.08,0,0,0,1.18-2.41,5.93,5.93,0,0,0-.21-4.61,5.57,5.57,0,0,0-3.62-2.85A5.37,5.37,0,0,0,36.17,96.38Z"/><path class="cls-6" d="M30.15,86.58C36,91.52,38.88,94,44.52,99c.68-1.81,1-2.71,1.83-4.48l-2.5-2.13c.83-1.84,1.27-2.74,2.2-4.53l3.31.39c.85-1.6,1.29-2.39,2.21-4-7.37-1-11.22-1.48-19.19-2.13C31.44,83.88,31,84.77,30.15,86.58Zm7.12.26c.49.07,1,.13,1.66.2l3,.34c-.47.93-.7,1.4-1.14,2.33l-2.63-2.19c-.21-.18-.47-.37-.76-.58A.71.71,0,0,0,37.27,86.84Z"/><path class="cls-6" d="M42.32,66.81c3.3,1.55,4.92,2.33,8.08,3.91.52.27,1,.5,1.45.7l.39.18H51l-.91,0-.84,0c-4.38.28-6.6.46-11.09.91-1.07,1.59-1.59,2.4-2.59,4,6.75,2.9,10,4.39,16.19,7.41.89-1.5,1.36-2.24,2.32-3.69-2.82-1.43-4.26-2.13-7.2-3.53-.44-.21-.93-.42-1.44-.63s-.84-.32-1.31-.49c.51,0,1,0,1.46,0,.87,0,1.7-.07,2.47-.14,4-.32,6-.45,9.89-.63,1.12-1.47,1.71-2.19,2.9-3.6-5.94-3.25-9-4.87-15.54-8C44.05,64.63,43.46,65.35,42.32,66.81Z"/><path class="cls-6" d="M58.85,52.64A12.68,12.68,0,0,0,51.64,56c-2,1.94-2.73,4-2.19,5.9s2.19,3.42,4.8,4.45a13.52,13.52,0,0,0,7.25.72,13.74,13.74,0,0,0,7.2-3.59c2.48-2.31,3.17-4.5,1.82-6.65a8.48,8.48,0,0,0-3.78-3.06A14.13,14.13,0,0,0,58.85,52.64Zm5.61,9.11a6.1,6.1,0,0,1-3.28,1.61,7,7,0,0,1-3.9-.45,3.59,3.59,0,0,1-2.34-2.25A2.85,2.85,0,0,1,56,57.84a5.83,5.83,0,0,1,3.4-1.55,7.64,7.64,0,0,1,4,.61,3.26,3.26,0,0,1,2.15,2.21A2.87,2.87,0,0,1,64.46,61.75Z"/></g></g></svg>